<?xml version="1.0" encoding="utf-8"?>
<!-- Generator: Adobe Illustrator 16.0.0, SVG Export Plug-In . SVG Version: 6.00 Build 0)  -->
<!DOCTYPE svg PUBLIC "-//W3C//DTD SVG 1.1//EN" "http://www.w3.org/Graphics/SVG/1.1/DTD/svg11.dtd">
<svg version="1.1" id="Capa_1" xmlns="http://www.w3.org/2000/svg" xmlns:xlink="http://www.w3.org/1999/xlink" x="0px" y="0px"
	 width="2000px" height="1500px" viewBox="0 0 2000 1500" enable-background="new 0 0 2000 1500" xml:space="preserve">
<g>
	<path fill="#FFFFFF" d="M182.503,1363.133c82.608,0,149.816-67.207,149.816-149.814c0-34.196-11.64-65.648-30.998-90.895
		l271.032-653.131l276.905,570.891c-13.184,22.3-20.884,48.194-20.884,75.92c0,82.607,67.208,149.815,149.816,149.815
		c82.605,0,149.813-67.208,149.813-149.815c0-20.899-4.328-40.796-12.088-58.887l104.257-133.846
		c8.096,1.362,16.359,2.239,24.831,2.239c7.753,0,15.319-0.779,22.756-1.918l97.03,131.771
		c-8.264,18.562-12.944,39.051-12.944,60.646c0,82.608,67.208,149.815,149.814,149.815c82.608,0,149.815-67.207,149.815-149.815
		c0-31.198-9.603-60.181-25.984-84.188l202.984-407.05c77.494-5.656,138.852-70.354,138.852-149.262
		c0-82.609-67.207-149.816-149.816-149.816S1667.695,393,1667.695,475.609c0,31.131,9.561,60.075,25.884,84.054l-203.054,407.192
		c-1.566,0.119-3.162,0.135-4.713,0.293l-101.199-137.436c6.493-16.756,10.201-34.892,10.201-53.919
		c0-82.608-67.207-149.815-149.816-149.815s-149.816,67.207-149.816,149.815c0,18.315,3.47,35.791,9.509,52.031L995.93,967.439
		c-5.244-0.622-10.569-0.996-15.971-1.063L692.792,374.325c17.888-24.674,28.562-54.9,28.562-87.642
		c0-82.608-67.207-149.816-149.815-149.816s-149.816,67.208-149.816,149.816c0,32.458,10.479,62.451,28.091,87.004l-286.846,691.237
		c-73.395,9.618-130.295,72.413-130.295,148.4C32.687,1295.934,99.894,1363.133,182.503,1363.133z"/>
</g>
</svg>
