<?xml version="1.0" encoding="utf-8"?>
<!-- Generator: Adobe Illustrator 16.0.0, SVG Export Plug-In . SVG Version: 6.00 Build 0)  -->
<!DOCTYPE svg PUBLIC "-//W3C//DTD SVG 1.1//EN" "http://www.w3.org/Graphics/SVG/1.1/DTD/svg11.dtd">
<svg version="1.1" id="icons_xA0_Image_1_" xmlns="http://www.w3.org/2000/svg" xmlns:xlink="http://www.w3.org/1999/xlink" x="0px"
	 y="0px" width="1000px" height="1000px" viewBox="0 0 1000 1000" enable-background="new 0 0 1000 1000" xml:space="preserve">
<g>
	<path display="none" fill="#FFFFFF" d="M1,1001C1,667.667,1,334.333,1,1c333.333,0,666.666,0,1000,0c0,333.333,0,666.667,0,1000
		C667.666,1001,334.333,1001,1,1001z M857.633,508.062c-0.022,0-0.046,0-0.068,0c0-68.325-0.133-136.652,0.2-204.979
		c0.034-6.983-2.967-10.825-8.034-13.987c-29.075-18.145-58.197-36.215-87.327-54.273c-28.281-17.533-56.619-34.977-84.88-52.544
		c-30.379-18.883-60.678-37.891-91.043-56.793c-26.409-16.441-52.896-32.76-79.264-49.269c-4.029-2.523-7.507-2.759-11.554-0.188
		c-6.595,4.192-13.372,8.1-20.104,12.072c-19.481,11.499-38.984,22.963-58.47,34.457c-21.492,12.678-42.963,25.392-64.462,38.058
		c-19.496,11.486-39.041,22.89-58.522,34.4c-24.06,14.217-48.059,28.538-72.118,42.757c-23.347,13.798-46.769,27.469-70.078,41.329
		c-4.161,2.475-6.555,6.139-6.472,11.465c1.451,93.406-2.114,186.831,1.966,280.25c1.729,39.587,0.353,79.312,0.208,118.976
		c-0.02,5.36-1.173,10.711-1.603,16.082c-0.076,0.947,0.566,2.316,1.329,2.908c5.587,4.334,11.043,8.908,16.999,12.685
		c22.622,14.341,45.395,28.445,68.156,42.566c18.237,11.312,36.572,22.468,54.805,33.788c26.144,16.229,52.23,32.556,78.35,48.825
		c20.759,12.931,41.528,25.846,62.3,38.754c23.031,14.312,46.093,28.579,69.091,42.945c3.354,2.096,6.446,2.243,9.808,0.218
		c6.555-3.949,13.159-7.812,19.741-11.715c16.452-9.752,32.882-19.543,49.361-29.25c21.791-12.835,43.636-25.582,65.432-38.408
		c19.638-11.558,39.239-23.172,58.857-34.76c16.761-9.899,33.521-19.805,50.284-29.698c16.475-9.725,32.976-19.398,49.424-29.165
		c17.883-10.618,35.676-21.389,53.609-31.916c3.363-1.976,4.157-4.424,4.151-8.109C857.605,646.384,857.633,577.224,857.633,508.062
		z"/>
	<path fill="#FFFFFF" d="M857.633,508.062c0,69.16-0.027,138.32,0.075,207.48c0.006,3.686-0.788,6.135-4.151,8.109
		c-17.935,10.527-35.728,21.298-53.609,31.916c-16.448,9.767-32.949,19.44-49.423,29.165c-16.766,9.895-33.524,19.799-50.285,29.698
		c-19.618,11.588-39.222,23.202-58.857,34.76c-21.796,12.826-43.641,25.573-65.432,38.408c-16.479,9.707-32.909,19.498-49.361,29.25
		c-6.582,3.901-13.188,7.766-19.741,11.714c-3.361,2.026-6.453,1.878-9.808-0.217c-22.999-14.367-46.059-28.634-69.091-42.945
		c-20.772-12.908-41.542-25.823-62.3-38.755c-26.12-16.27-52.206-32.595-78.35-48.824c-18.233-11.32-36.568-22.477-54.805-33.788
		c-22.761-14.121-45.534-28.227-68.156-42.566c-5.956-3.776-11.412-8.351-16.999-12.685c-0.763-0.592-1.405-1.961-1.329-2.908
		c0.43-5.371,1.583-10.722,1.603-16.082c0.145-39.662,1.521-79.389-0.208-118.977c-4.08-93.419-0.516-186.843-1.966-280.249
		c-0.083-5.326,2.311-8.99,6.472-11.465c23.309-13.86,46.731-27.531,70.078-41.329c24.059-14.219,48.058-28.54,72.118-42.757
		c19.481-11.511,39.026-22.914,58.522-34.4c21.499-12.666,42.97-25.38,64.462-38.058c19.485-11.494,38.988-22.958,58.47-34.457
		c6.732-3.973,13.51-7.88,20.104-12.072c4.047-2.571,7.524-2.336,11.554,0.188c26.367,16.509,52.854,32.827,79.265,49.269
		c30.364,18.902,60.663,37.91,91.042,56.793c28.261,17.567,56.599,35.011,84.88,52.544c29.13,18.059,58.252,36.129,87.328,54.273
		c5.066,3.162,8.067,7.004,8.034,13.987c-0.334,68.325-0.2,136.652-0.2,204.979C857.587,508.062,857.609,508.062,857.633,508.062z
		 M818.859,507.484c-0.177,0-0.353,0-0.525,0c0-62.316-0.012-124.635,0.023-186.951c0.003-3.896-0.754-7.269-4.319-9.473
		c-22.498-13.909-44.992-27.823-67.484-41.742c-17.686-10.943-35.391-21.856-53.043-32.853
		c-20.896-13.018-41.724-26.146-62.623-39.159c-20.9-13.015-41.862-25.93-62.779-38.919c-20.917-12.989-41.839-25.974-62.687-39.074
		c-3.061-1.923-5.704-2.099-8.791-0.255c-8.852,5.288-17.805,10.405-26.677,15.66c-27.053,16.021-54.069,32.104-81.132,48.108
		c-22.05,13.039-44.148,25.998-66.222,38.998c-21.931,12.915-43.868,25.821-65.785,38.759c-22.065,13.025-44.054,26.182-66.21,39.05
		c-4.514,2.622-6.011,5.945-6.003,10.97c0.166,109.479,0.218,218.955,0.297,328.435c0.011,14.829,0.101,29.659,0.038,44.489
		c-0.018,4.305,1.073,7.494,5.125,9.944c13.66,8.263,27.073,16.931,40.622,25.376c24.142,15.051,48.294,30.082,72.477,45.065
		c33.089,20.501,66.232,40.916,99.312,61.432c31.806,19.726,63.593,39.479,95.292,59.375c3.482,2.187,6.191,2.229,9.593,0.081
		c7.737-4.882,15.632-9.52,23.512-14.173c33.223-19.619,66.463-39.21,99.699-58.807c33.389-19.688,66.771-39.384,100.174-59.045
		c27.095-15.95,54.195-31.892,81.344-47.748c4.746-2.773,6.913-6.264,6.895-12.083C818.784,631.126,818.859,569.306,818.859,507.484
		z"/>
	<path display="none" fill="#FFFFFF" d="M818.859,507.484c0,61.82-0.075,123.642,0.121,185.462c0.019,5.819-2.148,9.31-6.896,12.083
		c-27.147,15.856-54.249,31.798-81.344,47.748c-33.402,19.662-66.785,39.357-100.175,59.045
		c-33.235,19.597-66.477,39.188-99.698,58.807c-7.88,4.653-15.773,9.291-23.513,14.173c-3.399,2.146-6.108,2.104-9.592-0.081
		c-31.699-19.896-63.485-39.649-95.292-59.375c-33.08-20.516-66.223-40.931-99.312-61.432
		c-24.183-14.983-48.335-30.016-72.477-45.065c-13.549-8.445-26.962-17.113-40.622-25.376c-4.053-2.45-5.144-5.641-5.125-9.944
		c0.062-14.83-0.027-29.66-0.038-44.489c-0.079-109.479-0.132-218.956-0.297-328.434c-0.008-5.024,1.489-8.349,6.003-10.971
		c22.156-12.868,44.145-26.024,66.21-39.05c21.917-12.938,43.854-25.844,65.785-38.759c22.074-13,44.171-25.959,66.222-38.998
		c27.062-16.005,54.08-32.087,81.132-48.108c8.872-5.255,17.826-10.372,26.677-15.66c3.086-1.844,5.73-1.668,8.791,0.255
		c20.849,13.101,41.769,26.085,62.687,39.074c20.916,12.989,41.879,25.904,62.779,38.919c20.899,13.014,41.728,26.142,62.623,39.159
		c17.652,10.996,35.357,21.909,53.043,32.853c22.492,13.918,44.986,27.833,67.484,41.741c3.564,2.205,4.322,5.578,4.32,9.474
		c-0.036,62.316-0.024,124.635-0.024,186.951C818.508,507.484,818.684,507.484,818.859,507.484z"/>
</g>
</svg>
