<?xml version="1.0" encoding="utf-8"?>
<!-- Generator: Adobe Illustrator 16.0.0, SVG Export Plug-In . SVG Version: 6.00 Build 0)  -->
<!DOCTYPE svg PUBLIC "-//W3C//DTD SVG 1.1//EN" "http://www.w3.org/Graphics/SVG/1.1/DTD/svg11.dtd">
<svg version="1.1" id="Capa_1" xmlns="http://www.w3.org/2000/svg" xmlns:xlink="http://www.w3.org/1999/xlink" x="0px" y="0px"
	 width="2000px" height="1500px" viewBox="0 0 2000 1500" enable-background="new 0 0 2000 1500" xml:space="preserve">
<g>
	<g>
		<g>
			<path fill="#010002" d="M1206.336,0C911.815,0,672.089,239.726,672.089,534.246c0,123.288,37.671,236.302,106.165,325.343
				l-496.576,496.575c-34.247,34.247-34.247,85.617,0,119.863c17.123,17.123,37.671,23.973,58.219,23.973
				c20.548,0,44.521-6.85,61.644-23.973l500-500c85.616,61.644,191.781,95.891,304.795,95.891
				c294.521,0,537.671-243.15,537.671-537.672C1744.007,239.726,1500.856,0,1206.336,0z M1206.336,921.232
				c-212.329,0-386.986-174.657-386.986-386.986c0-212.328,174.657-386.986,386.986-386.986
				c212.328,0,386.986,174.658,386.986,386.986C1593.322,746.575,1418.664,921.232,1206.336,921.232z"/>
		</g>
	</g>
</g>
</svg>
