<?xml version="1.0" encoding="utf-8"?>
<!-- Generator: Adobe Illustrator 16.0.0, SVG Export Plug-In . SVG Version: 6.00 Build 0)  -->
<!DOCTYPE svg PUBLIC "-//W3C//DTD SVG 1.1//EN" "http://www.w3.org/Graphics/SVG/1.1/DTD/svg11.dtd">
<svg version="1.1" id="Capa_1" xmlns="http://www.w3.org/2000/svg" xmlns:xlink="http://www.w3.org/1999/xlink" x="0px" y="0px"
	 width="2000px" height="1500px" viewBox="0 0 2000 1500" enable-background="new 0 0 2000 1500" xml:space="preserve">
<g>
	<g>
		<path fill="#FFFFFF" d="M358,1161c-57,0-108,48-108,105s51,108,108,108s105-51,105-108S415,1161,358,1161z"/>
		<path fill="#FFFFFF" d="M358,645c-57,0-108,48-108,105s51,105,108,105s105-48,105-105S415,645,358,645z"/>
		<path fill="#FFFFFF" d="M742,330h909c54,0,99-42,99-96s-45-99-99-99H742c-54,0-99,45-99,99S688,330,742,330z"/>
		<path fill="#FFFFFF" d="M358,126c-57,0-108,51-108,108s51,105,108,105s105-48,105-105S415,126,358,126z"/>
		<path fill="#FFFFFF" d="M1651,651H742c-54,0-99,45-99,99s45,99,99,99h909c54,0,99-45,99-99S1705,651,1651,651z"/>
		<path fill="#FFFFFF" d="M1651,1167H742c-54,0-99,45-99,99s45,99,99,99h909c54,0,99-45,99-99S1705,1167,1651,1167z"/>
	</g>
</g>
</svg>
